<?xml version="1.0" encoding="UTF-8" standalone="no"?>
<!-- Created with Inkscape (http://www.inkscape.org/) -->

<svg
   width="210mm"
   height="297mm"
   viewBox="0 0 210 297"
   version="1.1"
   id="svg1"
   inkscape:version="1.3 (0e150ed6c4, 2023-07-21)"
   sodipodi:docname="tank_base.svg"
   xmlns:inkscape="http://www.inkscape.org/namespaces/inkscape"
   xmlns:sodipodi="http://sodipodi.sourceforge.net/DTD/sodipodi-0.dtd"
   xmlns="http://www.w3.org/2000/svg"
   xmlns:svg="http://www.w3.org/2000/svg">
  <sodipodi:namedview
     id="namedview1"
     pagecolor="#ffffff"
     bordercolor="#000000"
     borderopacity="0.25"
     inkscape:showpageshadow="2"
     inkscape:pageopacity="0.0"
     inkscape:pagecheckerboard="0"
     inkscape:deskcolor="#d1d1d1"
     inkscape:document-units="mm"
     inkscape:zoom="2.1857191"
     inkscape:cx="56.045629"
     inkscape:cy="102.71219"
     inkscape:window-width="1920"
     inkscape:window-height="1019"
     inkscape:window-x="0"
     inkscape:window-y="0"
     inkscape:window-maximized="1"
     inkscape:current-layer="layer1" />
  <defs
     id="defs1" />
  <g
     inkscape:label="Layer 1"
     inkscape:groupmode="layer"
     id="layer1">
    <path
       stroke="none"
       fill="#1176a1"
       d="M 0,37.804879 V 12.195121 H 2.5641188 V 37.804879 H 0 M 50,12.195121 V 37.804879 H 47.435879 V 34.146342 15.853658 12.195121 H 50"
       id="path17"
       style="stroke-width:1.25039"
       inkscape:export-filename="tank_base.svg"
       inkscape:export-xdpi="96"
       inkscape:export-ydpi="96" />
    <path
       stroke="none"
       fill="#2e2b22"
       d="M 50,12.195121 H 47.435879 V 4.878048 q 0,-2.378052 -2.435857,-2.439027 H 5.128189 q -2.5640702,0 -2.5640702,2.439027 v 7.317073 H 0 V 4.878048 Q 0,0 5.128189,0 H 45.06408 Q 50,0.121959 50,4.878048 v 7.317073 m 0,25.609758 v 7.317073 Q 50,49.87805 45.06408,50 H 5.128189 Q 0,50 0,45.121952 v -7.317073 h 2.5641188 v 7.317073 q 0,2.439026 2.5640702,2.439026 H 45.000022 Q 47.435879,47.5 47.435879,45.121952 V 37.804879 H 50"
       id="path18"
       style="stroke-width:1.25039" />
    <path
       stroke="none"
       fill="#1ea7e1"
       d="m 26.282059,34.146342 q 4.038474,0 6.858971,-2.682925 2.75639,-2.68293 2.75639,-6.463417 0,-3.780487 -2.75639,-6.463417 -2.820497,-2.682925 -6.858971,-2.682925 -3.974367,0 -6.794863,2.682925 -2.820545,2.68293 -2.820545,6.463417 0,3.780487 2.820545,6.463417 2.820496,2.682925 6.794863,2.682925 M 2.5641188,12.195121 H 47.435879 v 3.658537 h -7.692305 v 18.292684 h 7.692305 v 3.658537 H 2.5641188 V 12.195121"
       id="path19"
       style="stroke-width:1.25039" />
    <path
       stroke="none"
       fill="#179ad2"
       d="m 26.282059,34.146342 q -3.974367,0 -6.794863,-2.682925 Q 16.666651,28.780487 16.666651,25 q 0,-3.780487 2.820545,-6.463417 2.820496,-2.682925 6.794863,-2.682925 4.038474,0 6.858971,2.682925 2.75639,2.68293 2.75639,6.463417 0,3.780487 -2.75639,6.463417 -2.820497,2.682925 -6.858971,2.682925 M 47.435879,15.853658 V 34.146342 H 39.743574 V 15.853658 h 7.692305"
       id="path20"
       style="stroke-width:1.25039" />
    <path
       stroke="none"
       fill="#403c2f"
       d="m 47.435879,37.804879 v 7.317073 q 0,2.378047 -2.435857,2.439026 H 5.128189 q -2.5640702,0 -2.5640702,-2.439026 V 37.804879 H 47.435879 M 2.5641188,12.195121 V 4.878048 q 0,-2.439027 2.5640702,-2.439027 h 39.871833 q 2.435857,0.06098 2.435857,2.439027 v 7.317073 H 2.5641188"
       id="path21"
       style="stroke-width:1.25039"
       inkscape:export-filename="tank_base.svg"
       inkscape:export-xdpi="96"
       inkscape:export-ydpi="96" />
  </g>
</svg>
